<mxfile host="app.diagrams.net" modified="2023-10-29T17:02:48.122Z" agent="Mozilla/5.0 (Windows NT 10.0; Win64; x64) AppleWebKit/537.36 (KHTML, like Gecko) Chrome/118.0.0.0 Safari/537.36" etag="Oezp-ykhGtcZzHuMa38C" version="22.0.8" type="github">
  <diagram id="C5RBs43oDa-KdzZeNtuy" name="Page-1">
    <mxGraphModel dx="733" dy="383" grid="1" gridSize="10" guides="1" tooltips="1" connect="1" arrows="1" fold="1" page="1" pageScale="1" pageWidth="827" pageHeight="1169" math="0" shadow="0">
      <root>
        <mxCell id="WIyWlLk6GJQsqaUBKTNV-0" />
        <mxCell id="WIyWlLk6GJQsqaUBKTNV-1" parent="WIyWlLk6GJQsqaUBKTNV-0" />
        <mxCell id="Cz3P-GHgFrTkB5Jf1ASt-25" style="edgeStyle=orthogonalEdgeStyle;rounded=0;orthogonalLoop=1;jettySize=auto;html=1;exitX=0.5;exitY=0;exitDx=0;exitDy=0;entryX=0.5;entryY=1;entryDx=0;entryDy=0;" parent="WIyWlLk6GJQsqaUBKTNV-1" source="WIyWlLk6GJQsqaUBKTNV-3" target="Cz3P-GHgFrTkB5Jf1ASt-26" edge="1">
          <mxGeometry relative="1" as="geometry">
            <mxPoint x="614.12" y="975" as="targetPoint" />
            <Array as="points" />
          </mxGeometry>
        </mxCell>
        <mxCell id="FsfqvCxigXIEtIi23rFH-119" value="1" style="edgeLabel;html=1;align=center;verticalAlign=middle;resizable=0;points=[];" parent="Cz3P-GHgFrTkB5Jf1ASt-25" vertex="1" connectable="0">
          <mxGeometry x="-0.8449" relative="1" as="geometry">
            <mxPoint as="offset" />
          </mxGeometry>
        </mxCell>
        <mxCell id="Cz3P-GHgFrTkB5Jf1ASt-31" style="edgeStyle=orthogonalEdgeStyle;rounded=0;orthogonalLoop=1;jettySize=auto;html=1;entryX=0.5;entryY=1;entryDx=0;entryDy=0;exitX=0;exitY=0.5;exitDx=0;exitDy=0;" parent="WIyWlLk6GJQsqaUBKTNV-1" source="WIyWlLk6GJQsqaUBKTNV-3" target="Cz3P-GHgFrTkB5Jf1ASt-32" edge="1">
          <mxGeometry relative="1" as="geometry">
            <mxPoint x="310" y="952" as="targetPoint" />
            <mxPoint x="750" y="1192" as="sourcePoint" />
          </mxGeometry>
        </mxCell>
        <mxCell id="FsfqvCxigXIEtIi23rFH-124" value="1" style="edgeLabel;html=1;align=center;verticalAlign=middle;resizable=0;points=[];" parent="Cz3P-GHgFrTkB5Jf1ASt-31" vertex="1" connectable="0">
          <mxGeometry x="-0.9143" relative="1" as="geometry">
            <mxPoint as="offset" />
          </mxGeometry>
        </mxCell>
        <mxCell id="Cz3P-GHgFrTkB5Jf1ASt-35" style="edgeStyle=orthogonalEdgeStyle;rounded=0;orthogonalLoop=1;jettySize=auto;html=1;exitX=0.5;exitY=0;exitDx=0;exitDy=0;entryX=0.5;entryY=1;entryDx=0;entryDy=0;" parent="WIyWlLk6GJQsqaUBKTNV-1" source="Cz3P-GHgFrTkB5Jf1ASt-36" target="Cz3P-GHgFrTkB5Jf1ASt-10" edge="1">
          <mxGeometry relative="1" as="geometry" />
        </mxCell>
        <mxCell id="FsfqvCxigXIEtIi23rFH-126" value="M" style="edgeLabel;html=1;align=center;verticalAlign=middle;resizable=0;points=[];" parent="Cz3P-GHgFrTkB5Jf1ASt-35" vertex="1" connectable="0">
          <mxGeometry x="0.7784" y="1" relative="1" as="geometry">
            <mxPoint as="offset" />
          </mxGeometry>
        </mxCell>
        <mxCell id="FsfqvCxigXIEtIi23rFH-91" style="rounded=0;orthogonalLoop=1;jettySize=auto;html=1;exitX=0.75;exitY=0;exitDx=0;exitDy=0;entryX=0.5;entryY=1;entryDx=0;entryDy=0;endArrow=none;endFill=0;" parent="WIyWlLk6GJQsqaUBKTNV-1" source="WIyWlLk6GJQsqaUBKTNV-3" target="FsfqvCxigXIEtIi23rFH-90" edge="1">
          <mxGeometry relative="1" as="geometry" />
        </mxCell>
        <mxCell id="FsfqvCxigXIEtIi23rFH-92" style="rounded=0;orthogonalLoop=1;jettySize=auto;html=1;exitX=0.25;exitY=0;exitDx=0;exitDy=0;entryX=0.5;entryY=1;entryDx=0;entryDy=0;endArrow=none;endFill=0;" parent="WIyWlLk6GJQsqaUBKTNV-1" source="WIyWlLk6GJQsqaUBKTNV-3" target="FsfqvCxigXIEtIi23rFH-89" edge="1">
          <mxGeometry relative="1" as="geometry" />
        </mxCell>
        <mxCell id="WIyWlLk6GJQsqaUBKTNV-3" value="admin" style="rounded=1;whiteSpace=wrap;html=1;fontSize=12;glass=0;strokeWidth=1;shadow=0;arcSize=0;" parent="WIyWlLk6GJQsqaUBKTNV-1" vertex="1">
          <mxGeometry x="625.87" y="1045" width="120" height="40" as="geometry" />
        </mxCell>
        <mxCell id="FsfqvCxigXIEtIi23rFH-5" style="edgeStyle=orthogonalEdgeStyle;rounded=0;orthogonalLoop=1;jettySize=auto;html=1;exitX=0.25;exitY=0;exitDx=0;exitDy=0;entryX=0.5;entryY=1;entryDx=0;entryDy=0;" parent="WIyWlLk6GJQsqaUBKTNV-1" source="WIyWlLk6GJQsqaUBKTNV-7" target="FsfqvCxigXIEtIi23rFH-6" edge="1">
          <mxGeometry relative="1" as="geometry">
            <mxPoint x="630" y="512" as="targetPoint" />
          </mxGeometry>
        </mxCell>
        <mxCell id="FsfqvCxigXIEtIi23rFH-117" value="1" style="edgeLabel;html=1;align=center;verticalAlign=middle;resizable=0;points=[];" parent="FsfqvCxigXIEtIi23rFH-5" vertex="1" connectable="0">
          <mxGeometry x="-0.9184" y="-1" relative="1" as="geometry">
            <mxPoint x="-14" y="-1" as="offset" />
          </mxGeometry>
        </mxCell>
        <mxCell id="FsfqvCxigXIEtIi23rFH-42" style="rounded=0;orthogonalLoop=1;jettySize=auto;html=1;endArrow=none;endFill=0;exitX=0.75;exitY=0;exitDx=0;exitDy=0;entryX=0.5;entryY=1;entryDx=0;entryDy=0;" parent="WIyWlLk6GJQsqaUBKTNV-1" source="WIyWlLk6GJQsqaUBKTNV-7" target="FsfqvCxigXIEtIi23rFH-43" edge="1">
          <mxGeometry relative="1" as="geometry">
            <mxPoint x="780" y="665" as="targetPoint" />
          </mxGeometry>
        </mxCell>
        <mxCell id="FsfqvCxigXIEtIi23rFH-44" style="rounded=0;orthogonalLoop=1;jettySize=auto;html=1;exitX=1;exitY=0.75;exitDx=0;exitDy=0;entryX=0;entryY=0;entryDx=0;entryDy=0;endArrow=none;endFill=0;" parent="WIyWlLk6GJQsqaUBKTNV-1" source="WIyWlLk6GJQsqaUBKTNV-7" target="FsfqvCxigXIEtIi23rFH-45" edge="1">
          <mxGeometry relative="1" as="geometry">
            <mxPoint x="800" y="705" as="targetPoint" />
          </mxGeometry>
        </mxCell>
        <mxCell id="FsfqvCxigXIEtIi23rFH-47" style="rounded=0;orthogonalLoop=1;jettySize=auto;html=1;exitX=0.75;exitY=1;exitDx=0;exitDy=0;entryX=0.5;entryY=0;entryDx=0;entryDy=0;endArrow=none;endFill=0;" parent="WIyWlLk6GJQsqaUBKTNV-1" source="WIyWlLk6GJQsqaUBKTNV-7" target="FsfqvCxigXIEtIi23rFH-46" edge="1">
          <mxGeometry relative="1" as="geometry" />
        </mxCell>
        <mxCell id="FsfqvCxigXIEtIi23rFH-48" style="rounded=0;orthogonalLoop=1;jettySize=auto;html=1;exitX=0.25;exitY=1;exitDx=0;exitDy=0;endArrow=none;endFill=0;" parent="WIyWlLk6GJQsqaUBKTNV-1" source="WIyWlLk6GJQsqaUBKTNV-7" edge="1">
          <mxGeometry relative="1" as="geometry">
            <mxPoint x="640" y="735" as="targetPoint" />
          </mxGeometry>
        </mxCell>
        <mxCell id="FsfqvCxigXIEtIi23rFH-51" style="rounded=0;orthogonalLoop=1;jettySize=auto;html=1;exitX=1;exitY=0.5;exitDx=0;exitDy=0;entryX=0;entryY=0.5;entryDx=0;entryDy=0;endArrow=none;endFill=0;" parent="WIyWlLk6GJQsqaUBKTNV-1" source="WIyWlLk6GJQsqaUBKTNV-7" target="FsfqvCxigXIEtIi23rFH-50" edge="1">
          <mxGeometry relative="1" as="geometry" />
        </mxCell>
        <mxCell id="FsfqvCxigXIEtIi23rFH-55" style="rounded=0;orthogonalLoop=1;jettySize=auto;html=1;exitX=0;exitY=1;exitDx=0;exitDy=0;entryX=1;entryY=0;entryDx=0;entryDy=0;endArrow=none;endFill=0;" parent="WIyWlLk6GJQsqaUBKTNV-1" source="WIyWlLk6GJQsqaUBKTNV-7" target="FsfqvCxigXIEtIi23rFH-54" edge="1">
          <mxGeometry relative="1" as="geometry" />
        </mxCell>
        <mxCell id="WIyWlLk6GJQsqaUBKTNV-7" value="produk" style="rounded=1;whiteSpace=wrap;html=1;fontSize=12;glass=0;strokeWidth=1;shadow=0;arcSize=0;" parent="WIyWlLk6GJQsqaUBKTNV-1" vertex="1">
          <mxGeometry x="625.87" y="645" width="120" height="40" as="geometry" />
        </mxCell>
        <mxCell id="Cz3P-GHgFrTkB5Jf1ASt-15" value="" style="edgeStyle=orthogonalEdgeStyle;rounded=0;orthogonalLoop=1;jettySize=auto;html=1;exitX=0;exitY=0.5;exitDx=0;exitDy=0;entryX=1;entryY=0.5;entryDx=0;entryDy=0;" parent="WIyWlLk6GJQsqaUBKTNV-1" source="WIyWlLk6GJQsqaUBKTNV-10" target="WIyWlLk6GJQsqaUBKTNV-11" edge="1">
          <mxGeometry relative="1" as="geometry">
            <mxPoint x="1040" y="392" as="targetPoint" />
          </mxGeometry>
        </mxCell>
        <mxCell id="FsfqvCxigXIEtIi23rFH-108" value="M" style="edgeLabel;html=1;align=center;verticalAlign=middle;resizable=0;points=[];" parent="Cz3P-GHgFrTkB5Jf1ASt-15" vertex="1" connectable="0">
          <mxGeometry x="0.7039" y="1" relative="1" as="geometry">
            <mxPoint x="-3" y="9" as="offset" />
          </mxGeometry>
        </mxCell>
        <mxCell id="WIyWlLk6GJQsqaUBKTNV-10" value="melakukan" style="rhombus;whiteSpace=wrap;html=1;shadow=0;fontFamily=Helvetica;fontSize=12;align=center;strokeWidth=1;spacing=6;spacingTop=-4;" parent="WIyWlLk6GJQsqaUBKTNV-1" vertex="1">
          <mxGeometry x="1170" y="312" width="100" height="80" as="geometry" />
        </mxCell>
        <mxCell id="Cz3P-GHgFrTkB5Jf1ASt-16" value="" style="edgeStyle=orthogonalEdgeStyle;rounded=0;orthogonalLoop=1;jettySize=auto;html=1;exitX=0.75;exitY=1;exitDx=0;exitDy=0;entryX=0;entryY=0.5;entryDx=0;entryDy=0;" parent="WIyWlLk6GJQsqaUBKTNV-1" source="WIyWlLk6GJQsqaUBKTNV-11" target="Cz3P-GHgFrTkB5Jf1ASt-12" edge="1">
          <mxGeometry relative="1" as="geometry" />
        </mxCell>
        <mxCell id="FsfqvCxigXIEtIi23rFH-111" value="1" style="edgeLabel;html=1;align=center;verticalAlign=middle;resizable=0;points=[];" parent="Cz3P-GHgFrTkB5Jf1ASt-16" vertex="1" connectable="0">
          <mxGeometry x="-0.8501" y="1" relative="1" as="geometry">
            <mxPoint x="9" y="2" as="offset" />
          </mxGeometry>
        </mxCell>
        <mxCell id="Cz3P-GHgFrTkB5Jf1ASt-17" style="edgeStyle=orthogonalEdgeStyle;rounded=0;orthogonalLoop=1;jettySize=auto;html=1;exitX=0.5;exitY=1;exitDx=0;exitDy=0;entryX=0.5;entryY=0;entryDx=0;entryDy=0;" parent="WIyWlLk6GJQsqaUBKTNV-1" source="FsfqvCxigXIEtIi23rFH-2" target="Cz3P-GHgFrTkB5Jf1ASt-11" edge="1">
          <mxGeometry relative="1" as="geometry" />
        </mxCell>
        <mxCell id="FsfqvCxigXIEtIi23rFH-115" value="1" style="edgeLabel;html=1;align=center;verticalAlign=middle;resizable=0;points=[];" parent="Cz3P-GHgFrTkB5Jf1ASt-17" vertex="1" connectable="0">
          <mxGeometry x="-0.9039" relative="1" as="geometry">
            <mxPoint x="12" as="offset" />
          </mxGeometry>
        </mxCell>
        <mxCell id="FsfqvCxigXIEtIi23rFH-1" style="edgeStyle=orthogonalEdgeStyle;rounded=0;orthogonalLoop=1;jettySize=auto;html=1;exitX=0.5;exitY=0;exitDx=0;exitDy=0;entryX=0.5;entryY=1;entryDx=0;entryDy=0;" parent="WIyWlLk6GJQsqaUBKTNV-1" source="WIyWlLk6GJQsqaUBKTNV-11" target="FsfqvCxigXIEtIi23rFH-0" edge="1">
          <mxGeometry relative="1" as="geometry" />
        </mxCell>
        <mxCell id="FsfqvCxigXIEtIi23rFH-109" value="1" style="edgeLabel;html=1;align=center;verticalAlign=middle;resizable=0;points=[];" parent="FsfqvCxigXIEtIi23rFH-1" vertex="1" connectable="0">
          <mxGeometry x="-0.8615" relative="1" as="geometry">
            <mxPoint x="-10" y="-2" as="offset" />
          </mxGeometry>
        </mxCell>
        <mxCell id="FsfqvCxigXIEtIi23rFH-8" style="edgeStyle=orthogonalEdgeStyle;rounded=0;orthogonalLoop=1;jettySize=auto;html=1;exitX=0.5;exitY=1;exitDx=0;exitDy=0;entryX=0.5;entryY=0;entryDx=0;entryDy=0;" parent="WIyWlLk6GJQsqaUBKTNV-1" source="WIyWlLk6GJQsqaUBKTNV-11" target="FsfqvCxigXIEtIi23rFH-9" edge="1">
          <mxGeometry relative="1" as="geometry">
            <mxPoint x="950.1428571428573" y="782" as="targetPoint" />
          </mxGeometry>
        </mxCell>
        <mxCell id="FsfqvCxigXIEtIi23rFH-113" value="1" style="edgeLabel;html=1;align=center;verticalAlign=middle;resizable=0;points=[];" parent="FsfqvCxigXIEtIi23rFH-8" vertex="1" connectable="0">
          <mxGeometry x="-0.9418" relative="1" as="geometry">
            <mxPoint x="-10" y="-4" as="offset" />
          </mxGeometry>
        </mxCell>
        <mxCell id="FsfqvCxigXIEtIi23rFH-37" style="rounded=0;orthogonalLoop=1;jettySize=auto;html=1;exitX=0.75;exitY=0;exitDx=0;exitDy=0;entryX=0;entryY=0.5;entryDx=0;entryDy=0;endArrow=none;endFill=0;" parent="WIyWlLk6GJQsqaUBKTNV-1" source="WIyWlLk6GJQsqaUBKTNV-11" target="FsfqvCxigXIEtIi23rFH-33" edge="1">
          <mxGeometry relative="1" as="geometry" />
        </mxCell>
        <mxCell id="FsfqvCxigXIEtIi23rFH-39" style="rounded=0;orthogonalLoop=1;jettySize=auto;html=1;exitX=0;exitY=0.5;exitDx=0;exitDy=0;entryX=1;entryY=0.5;entryDx=0;entryDy=0;endArrow=none;endFill=0;" parent="WIyWlLk6GJQsqaUBKTNV-1" source="WIyWlLk6GJQsqaUBKTNV-11" target="FsfqvCxigXIEtIi23rFH-35" edge="1">
          <mxGeometry relative="1" as="geometry" />
        </mxCell>
        <mxCell id="FsfqvCxigXIEtIi23rFH-40" style="rounded=0;orthogonalLoop=1;jettySize=auto;html=1;exitX=0.25;exitY=0;exitDx=0;exitDy=0;entryX=0.5;entryY=1;entryDx=0;entryDy=0;endArrow=none;endFill=0;" parent="WIyWlLk6GJQsqaUBKTNV-1" source="WIyWlLk6GJQsqaUBKTNV-11" target="FsfqvCxigXIEtIi23rFH-32" edge="1">
          <mxGeometry relative="1" as="geometry" />
        </mxCell>
        <mxCell id="FsfqvCxigXIEtIi23rFH-86" style="rounded=0;orthogonalLoop=1;jettySize=auto;html=1;exitX=0;exitY=0.75;exitDx=0;exitDy=0;entryX=0.5;entryY=0;entryDx=0;entryDy=0;endArrow=none;endFill=0;" parent="WIyWlLk6GJQsqaUBKTNV-1" source="WIyWlLk6GJQsqaUBKTNV-11" target="FsfqvCxigXIEtIi23rFH-85" edge="1">
          <mxGeometry relative="1" as="geometry" />
        </mxCell>
        <mxCell id="FsfqvCxigXIEtIi23rFH-88" style="rounded=0;orthogonalLoop=1;jettySize=auto;html=1;exitX=0.25;exitY=1;exitDx=0;exitDy=0;entryX=1;entryY=0;entryDx=0;entryDy=0;endArrow=none;endFill=0;" parent="WIyWlLk6GJQsqaUBKTNV-1" source="WIyWlLk6GJQsqaUBKTNV-11" target="FsfqvCxigXIEtIi23rFH-87" edge="1">
          <mxGeometry relative="1" as="geometry" />
        </mxCell>
        <mxCell id="WIyWlLk6GJQsqaUBKTNV-11" value="pesanan" style="rounded=1;whiteSpace=wrap;html=1;fontSize=12;glass=0;strokeWidth=1;shadow=0;arcSize=0;" parent="WIyWlLk6GJQsqaUBKTNV-1" vertex="1">
          <mxGeometry x="890" y="332" width="120" height="40" as="geometry" />
        </mxCell>
        <mxCell id="FsfqvCxigXIEtIi23rFH-64" style="rounded=0;orthogonalLoop=1;jettySize=auto;html=1;exitX=0.25;exitY=0;exitDx=0;exitDy=0;entryX=0.5;entryY=1;entryDx=0;entryDy=0;endArrow=none;endFill=0;" parent="WIyWlLk6GJQsqaUBKTNV-1" source="WIyWlLk6GJQsqaUBKTNV-12" target="FsfqvCxigXIEtIi23rFH-62" edge="1">
          <mxGeometry relative="1" as="geometry" />
        </mxCell>
        <mxCell id="FsfqvCxigXIEtIi23rFH-65" style="rounded=0;orthogonalLoop=1;jettySize=auto;html=1;exitX=0.75;exitY=0;exitDx=0;exitDy=0;entryX=0;entryY=1;entryDx=0;entryDy=0;endArrow=none;endFill=0;" parent="WIyWlLk6GJQsqaUBKTNV-1" source="WIyWlLk6GJQsqaUBKTNV-12" target="FsfqvCxigXIEtIi23rFH-58" edge="1">
          <mxGeometry relative="1" as="geometry" />
        </mxCell>
        <mxCell id="FsfqvCxigXIEtIi23rFH-66" style="rounded=0;orthogonalLoop=1;jettySize=auto;html=1;exitX=1;exitY=0.5;exitDx=0;exitDy=0;entryX=0;entryY=0.5;entryDx=0;entryDy=0;endArrow=none;endFill=0;" parent="WIyWlLk6GJQsqaUBKTNV-1" source="WIyWlLk6GJQsqaUBKTNV-12" target="FsfqvCxigXIEtIi23rFH-63" edge="1">
          <mxGeometry relative="1" as="geometry" />
        </mxCell>
        <mxCell id="FsfqvCxigXIEtIi23rFH-67" style="rounded=0;orthogonalLoop=1;jettySize=auto;html=1;exitX=0.75;exitY=1;exitDx=0;exitDy=0;entryX=0;entryY=0;entryDx=0;entryDy=0;endArrow=none;endFill=0;" parent="WIyWlLk6GJQsqaUBKTNV-1" source="WIyWlLk6GJQsqaUBKTNV-12" target="FsfqvCxigXIEtIi23rFH-60" edge="1">
          <mxGeometry relative="1" as="geometry" />
        </mxCell>
        <mxCell id="FsfqvCxigXIEtIi23rFH-68" style="rounded=0;orthogonalLoop=1;jettySize=auto;html=1;exitX=0.5;exitY=1;exitDx=0;exitDy=0;entryX=0.5;entryY=0;entryDx=0;entryDy=0;endArrow=none;endFill=0;" parent="WIyWlLk6GJQsqaUBKTNV-1" source="WIyWlLk6GJQsqaUBKTNV-12" target="FsfqvCxigXIEtIi23rFH-59" edge="1">
          <mxGeometry relative="1" as="geometry" />
        </mxCell>
        <mxCell id="FsfqvCxigXIEtIi23rFH-69" style="rounded=0;orthogonalLoop=1;jettySize=auto;html=1;exitX=0.25;exitY=1;exitDx=0;exitDy=0;entryX=0.5;entryY=0;entryDx=0;entryDy=0;endArrow=none;endFill=0;" parent="WIyWlLk6GJQsqaUBKTNV-1" source="WIyWlLk6GJQsqaUBKTNV-12" target="FsfqvCxigXIEtIi23rFH-61" edge="1">
          <mxGeometry relative="1" as="geometry" />
        </mxCell>
        <mxCell id="WIyWlLk6GJQsqaUBKTNV-12" value="pembayaran" style="rounded=1;whiteSpace=wrap;html=1;fontSize=12;glass=0;strokeWidth=1;shadow=0;arcSize=0;" parent="WIyWlLk6GJQsqaUBKTNV-1" vertex="1">
          <mxGeometry x="1000" y="622" width="120" height="40" as="geometry" />
        </mxCell>
        <mxCell id="Cz3P-GHgFrTkB5Jf1ASt-21" style="edgeStyle=orthogonalEdgeStyle;rounded=0;orthogonalLoop=1;jettySize=auto;html=1;entryX=0;entryY=0.5;entryDx=0;entryDy=0;" parent="WIyWlLk6GJQsqaUBKTNV-1" source="Cz3P-GHgFrTkB5Jf1ASt-8" target="Cz3P-GHgFrTkB5Jf1ASt-22" edge="1">
          <mxGeometry relative="1" as="geometry">
            <mxPoint x="100" y="892" as="targetPoint" />
            <Array as="points">
              <mxPoint x="360" y="662" />
            </Array>
          </mxGeometry>
        </mxCell>
        <mxCell id="FsfqvCxigXIEtIi23rFH-121" value="M" style="edgeLabel;html=1;align=center;verticalAlign=middle;resizable=0;points=[];" parent="Cz3P-GHgFrTkB5Jf1ASt-21" vertex="1" connectable="0">
          <mxGeometry x="-0.7073" relative="1" as="geometry">
            <mxPoint x="-5" y="10" as="offset" />
          </mxGeometry>
        </mxCell>
        <mxCell id="FsfqvCxigXIEtIi23rFH-101" style="rounded=0;orthogonalLoop=1;jettySize=auto;html=1;exitX=0;exitY=0.75;exitDx=0;exitDy=0;entryX=1;entryY=0.5;entryDx=0;entryDy=0;endArrow=none;endFill=0;" parent="WIyWlLk6GJQsqaUBKTNV-1" source="Cz3P-GHgFrTkB5Jf1ASt-8" target="FsfqvCxigXIEtIi23rFH-100" edge="1">
          <mxGeometry relative="1" as="geometry" />
        </mxCell>
        <mxCell id="FsfqvCxigXIEtIi23rFH-102" style="rounded=0;orthogonalLoop=1;jettySize=auto;html=1;exitX=0.25;exitY=1;exitDx=0;exitDy=0;entryX=0.5;entryY=0;entryDx=0;entryDy=0;endArrow=none;endFill=0;" parent="WIyWlLk6GJQsqaUBKTNV-1" source="Cz3P-GHgFrTkB5Jf1ASt-8" target="FsfqvCxigXIEtIi23rFH-98" edge="1">
          <mxGeometry relative="1" as="geometry" />
        </mxCell>
        <mxCell id="FsfqvCxigXIEtIi23rFH-103" style="rounded=0;orthogonalLoop=1;jettySize=auto;html=1;exitX=0.75;exitY=1;exitDx=0;exitDy=0;entryX=0.5;entryY=0;entryDx=0;entryDy=0;endArrow=none;endFill=0;" parent="WIyWlLk6GJQsqaUBKTNV-1" source="Cz3P-GHgFrTkB5Jf1ASt-8" target="FsfqvCxigXIEtIi23rFH-95" edge="1">
          <mxGeometry relative="1" as="geometry" />
        </mxCell>
        <mxCell id="FsfqvCxigXIEtIi23rFH-104" style="rounded=0;orthogonalLoop=1;jettySize=auto;html=1;exitX=0.75;exitY=0;exitDx=0;exitDy=0;entryX=0;entryY=1;entryDx=0;entryDy=0;endArrow=none;endFill=0;" parent="WIyWlLk6GJQsqaUBKTNV-1" source="Cz3P-GHgFrTkB5Jf1ASt-8" target="FsfqvCxigXIEtIi23rFH-96" edge="1">
          <mxGeometry relative="1" as="geometry" />
        </mxCell>
        <mxCell id="FsfqvCxigXIEtIi23rFH-105" style="rounded=0;orthogonalLoop=1;jettySize=auto;html=1;exitX=0.5;exitY=0;exitDx=0;exitDy=0;entryX=0.5;entryY=1;entryDx=0;entryDy=0;endArrow=none;endFill=0;" parent="WIyWlLk6GJQsqaUBKTNV-1" source="Cz3P-GHgFrTkB5Jf1ASt-8" target="FsfqvCxigXIEtIi23rFH-97" edge="1">
          <mxGeometry relative="1" as="geometry" />
        </mxCell>
        <mxCell id="FsfqvCxigXIEtIi23rFH-106" style="rounded=0;orthogonalLoop=1;jettySize=auto;html=1;exitX=0.25;exitY=0;exitDx=0;exitDy=0;entryX=1;entryY=0.5;entryDx=0;entryDy=0;endArrow=none;endFill=0;" parent="WIyWlLk6GJQsqaUBKTNV-1" source="Cz3P-GHgFrTkB5Jf1ASt-8" target="FsfqvCxigXIEtIi23rFH-99" edge="1">
          <mxGeometry relative="1" as="geometry" />
        </mxCell>
        <mxCell id="Cz3P-GHgFrTkB5Jf1ASt-8" value="penjual" style="rounded=1;whiteSpace=wrap;html=1;fontSize=12;glass=0;strokeWidth=1;shadow=0;arcSize=0;" parent="WIyWlLk6GJQsqaUBKTNV-1" vertex="1">
          <mxGeometry x="140" y="644.5" width="120" height="40" as="geometry" />
        </mxCell>
        <mxCell id="Cz3P-GHgFrTkB5Jf1ASt-14" value="" style="edgeStyle=orthogonalEdgeStyle;rounded=0;orthogonalLoop=1;jettySize=auto;html=1;exitX=0;exitY=0.5;exitDx=0;exitDy=0;entryX=1;entryY=0.5;entryDx=0;entryDy=0;" parent="WIyWlLk6GJQsqaUBKTNV-1" source="Cz3P-GHgFrTkB5Jf1ASt-10" target="WIyWlLk6GJQsqaUBKTNV-10" edge="1">
          <mxGeometry relative="1" as="geometry">
            <mxPoint x="1340" y="452" as="targetPoint" />
          </mxGeometry>
        </mxCell>
        <mxCell id="FsfqvCxigXIEtIi23rFH-107" value="1" style="edgeLabel;html=1;align=center;verticalAlign=middle;resizable=0;points=[];" parent="Cz3P-GHgFrTkB5Jf1ASt-14" vertex="1" connectable="0">
          <mxGeometry x="-0.7125" relative="1" as="geometry">
            <mxPoint x="13" y="10" as="offset" />
          </mxGeometry>
        </mxCell>
        <mxCell id="FsfqvCxigXIEtIi23rFH-13" value="" style="rounded=0;orthogonalLoop=1;jettySize=auto;html=1;endArrow=none;endFill=0;exitX=0.5;exitY=0;exitDx=0;exitDy=0;entryX=0.5;entryY=1;entryDx=0;entryDy=0;" parent="WIyWlLk6GJQsqaUBKTNV-1" source="Cz3P-GHgFrTkB5Jf1ASt-10" target="FsfqvCxigXIEtIi23rFH-12" edge="1">
          <mxGeometry relative="1" as="geometry" />
        </mxCell>
        <mxCell id="FsfqvCxigXIEtIi23rFH-18" style="rounded=0;orthogonalLoop=1;jettySize=auto;html=1;exitX=0.25;exitY=0;exitDx=0;exitDy=0;entryX=1;entryY=1;entryDx=0;entryDy=0;endArrow=none;endFill=0;" parent="WIyWlLk6GJQsqaUBKTNV-1" source="Cz3P-GHgFrTkB5Jf1ASt-10" target="FsfqvCxigXIEtIi23rFH-14" edge="1">
          <mxGeometry relative="1" as="geometry" />
        </mxCell>
        <mxCell id="FsfqvCxigXIEtIi23rFH-19" style="rounded=0;orthogonalLoop=1;jettySize=auto;html=1;exitX=0.75;exitY=0;exitDx=0;exitDy=0;entryX=0;entryY=0.5;entryDx=0;entryDy=0;endArrow=none;endFill=0;" parent="WIyWlLk6GJQsqaUBKTNV-1" source="Cz3P-GHgFrTkB5Jf1ASt-10" target="FsfqvCxigXIEtIi23rFH-15" edge="1">
          <mxGeometry relative="1" as="geometry" />
        </mxCell>
        <mxCell id="FsfqvCxigXIEtIi23rFH-20" style="rounded=0;orthogonalLoop=1;jettySize=auto;html=1;exitX=0.75;exitY=1;exitDx=0;exitDy=0;entryX=0;entryY=0;entryDx=0;entryDy=0;endArrow=none;endFill=0;" parent="WIyWlLk6GJQsqaUBKTNV-1" source="Cz3P-GHgFrTkB5Jf1ASt-10" target="FsfqvCxigXIEtIi23rFH-17" edge="1">
          <mxGeometry relative="1" as="geometry" />
        </mxCell>
        <mxCell id="FsfqvCxigXIEtIi23rFH-21" style="rounded=0;orthogonalLoop=1;jettySize=auto;html=1;exitX=0.25;exitY=1;exitDx=0;exitDy=0;entryX=1;entryY=0;entryDx=0;entryDy=0;endArrow=none;endFill=0;" parent="WIyWlLk6GJQsqaUBKTNV-1" source="Cz3P-GHgFrTkB5Jf1ASt-10" target="FsfqvCxigXIEtIi23rFH-16" edge="1">
          <mxGeometry relative="1" as="geometry" />
        </mxCell>
        <mxCell id="Cz3P-GHgFrTkB5Jf1ASt-10" value="pelanggan" style="rounded=1;whiteSpace=wrap;html=1;fontSize=12;glass=0;strokeWidth=1;shadow=0;arcSize=0;" parent="WIyWlLk6GJQsqaUBKTNV-1" vertex="1">
          <mxGeometry x="1430" y="332" width="120" height="40" as="geometry" />
        </mxCell>
        <mxCell id="Cz3P-GHgFrTkB5Jf1ASt-19" value="" style="edgeStyle=orthogonalEdgeStyle;rounded=0;orthogonalLoop=1;jettySize=auto;html=1;entryX=0.5;entryY=0;entryDx=0;entryDy=0;exitX=0.5;exitY=1;exitDx=0;exitDy=0;" parent="WIyWlLk6GJQsqaUBKTNV-1" source="Cz3P-GHgFrTkB5Jf1ASt-11" target="WIyWlLk6GJQsqaUBKTNV-7" edge="1">
          <mxGeometry relative="1" as="geometry" />
        </mxCell>
        <mxCell id="FsfqvCxigXIEtIi23rFH-116" value="M" style="edgeLabel;html=1;align=center;verticalAlign=middle;resizable=0;points=[];" parent="Cz3P-GHgFrTkB5Jf1ASt-19" vertex="1" connectable="0">
          <mxGeometry x="0.7439" relative="1" as="geometry">
            <mxPoint as="offset" />
          </mxGeometry>
        </mxCell>
        <mxCell id="Cz3P-GHgFrTkB5Jf1ASt-11" value="memiliki" style="rhombus;whiteSpace=wrap;html=1;shadow=0;fontFamily=Helvetica;fontSize=12;align=center;strokeWidth=1;spacing=6;spacingTop=-4;" parent="WIyWlLk6GJQsqaUBKTNV-1" vertex="1">
          <mxGeometry x="636" y="392" width="100" height="80" as="geometry" />
        </mxCell>
        <mxCell id="Cz3P-GHgFrTkB5Jf1ASt-18" value="" style="edgeStyle=orthogonalEdgeStyle;rounded=0;orthogonalLoop=1;jettySize=auto;html=1;" parent="WIyWlLk6GJQsqaUBKTNV-1" source="Cz3P-GHgFrTkB5Jf1ASt-12" target="WIyWlLk6GJQsqaUBKTNV-12" edge="1">
          <mxGeometry relative="1" as="geometry" />
        </mxCell>
        <mxCell id="FsfqvCxigXIEtIi23rFH-112" value="1" style="edgeLabel;html=1;align=center;verticalAlign=middle;resizable=0;points=[];" parent="Cz3P-GHgFrTkB5Jf1ASt-18" vertex="1" connectable="0">
          <mxGeometry x="-0.3851" y="3" relative="1" as="geometry">
            <mxPoint x="7" y="80" as="offset" />
          </mxGeometry>
        </mxCell>
        <mxCell id="Cz3P-GHgFrTkB5Jf1ASt-12" value="memerlukan" style="rhombus;whiteSpace=wrap;html=1;shadow=0;fontFamily=Helvetica;fontSize=12;align=center;strokeWidth=1;spacing=6;spacingTop=-4;" parent="WIyWlLk6GJQsqaUBKTNV-1" vertex="1">
          <mxGeometry x="1010" y="412" width="100" height="80" as="geometry" />
        </mxCell>
        <mxCell id="Cz3P-GHgFrTkB5Jf1ASt-23" style="edgeStyle=orthogonalEdgeStyle;rounded=0;orthogonalLoop=1;jettySize=auto;html=1;entryX=0;entryY=0.5;entryDx=0;entryDy=0;exitX=1;exitY=0.5;exitDx=0;exitDy=0;" parent="WIyWlLk6GJQsqaUBKTNV-1" source="Cz3P-GHgFrTkB5Jf1ASt-22" target="WIyWlLk6GJQsqaUBKTNV-7" edge="1">
          <mxGeometry relative="1" as="geometry">
            <Array as="points">
              <mxPoint x="460" y="665" />
            </Array>
            <mxPoint x="530" y="665" as="sourcePoint" />
          </mxGeometry>
        </mxCell>
        <mxCell id="FsfqvCxigXIEtIi23rFH-122" value="M" style="edgeLabel;html=1;align=center;verticalAlign=middle;resizable=0;points=[];" parent="Cz3P-GHgFrTkB5Jf1ASt-23" vertex="1" connectable="0">
          <mxGeometry x="0.7528" y="1" relative="1" as="geometry">
            <mxPoint x="4" y="9" as="offset" />
          </mxGeometry>
        </mxCell>
        <mxCell id="Cz3P-GHgFrTkB5Jf1ASt-22" value="meyediakan" style="rhombus;whiteSpace=wrap;html=1;shadow=0;fontFamily=Helvetica;fontSize=12;align=center;strokeWidth=1;spacing=6;spacingTop=-4;" parent="WIyWlLk6GJQsqaUBKTNV-1" vertex="1">
          <mxGeometry x="360" y="622" width="100" height="80" as="geometry" />
        </mxCell>
        <mxCell id="Cz3P-GHgFrTkB5Jf1ASt-26" value="menangani" style="rhombus;whiteSpace=wrap;html=1;shadow=0;fontFamily=Helvetica;fontSize=12;align=center;strokeWidth=1;spacing=6;spacingTop=-4;" parent="WIyWlLk6GJQsqaUBKTNV-1" vertex="1">
          <mxGeometry x="635.87" y="800" width="100" height="80" as="geometry" />
        </mxCell>
        <mxCell id="Cz3P-GHgFrTkB5Jf1ASt-30" style="edgeStyle=orthogonalEdgeStyle;rounded=0;orthogonalLoop=1;jettySize=auto;html=1;exitX=0.5;exitY=0;exitDx=0;exitDy=0;entryX=0.5;entryY=1;entryDx=0;entryDy=0;" parent="WIyWlLk6GJQsqaUBKTNV-1" source="Cz3P-GHgFrTkB5Jf1ASt-26" target="WIyWlLk6GJQsqaUBKTNV-7" edge="1">
          <mxGeometry relative="1" as="geometry">
            <mxPoint x="694.12" y="695" as="targetPoint" />
          </mxGeometry>
        </mxCell>
        <mxCell id="FsfqvCxigXIEtIi23rFH-123" value="M" style="edgeLabel;html=1;align=center;verticalAlign=middle;resizable=0;points=[];" parent="Cz3P-GHgFrTkB5Jf1ASt-30" vertex="1" connectable="0">
          <mxGeometry x="0.5922" y="1" relative="1" as="geometry">
            <mxPoint as="offset" />
          </mxGeometry>
        </mxCell>
        <mxCell id="Cz3P-GHgFrTkB5Jf1ASt-33" style="edgeStyle=orthogonalEdgeStyle;rounded=0;orthogonalLoop=1;jettySize=auto;html=1;exitX=0.5;exitY=0;exitDx=0;exitDy=0;entryX=0.5;entryY=1;entryDx=0;entryDy=0;" parent="WIyWlLk6GJQsqaUBKTNV-1" source="Cz3P-GHgFrTkB5Jf1ASt-32" target="Cz3P-GHgFrTkB5Jf1ASt-8" edge="1">
          <mxGeometry relative="1" as="geometry" />
        </mxCell>
        <mxCell id="FsfqvCxigXIEtIi23rFH-120" value="M" style="edgeLabel;html=1;align=center;verticalAlign=middle;resizable=0;points=[];" parent="Cz3P-GHgFrTkB5Jf1ASt-33" vertex="1" connectable="0">
          <mxGeometry x="0.6319" y="2" relative="1" as="geometry">
            <mxPoint x="2" y="4" as="offset" />
          </mxGeometry>
        </mxCell>
        <mxCell id="Cz3P-GHgFrTkB5Jf1ASt-32" value="melayani" style="rhombus;whiteSpace=wrap;html=1;shadow=0;fontFamily=Helvetica;fontSize=12;align=center;strokeWidth=1;spacing=6;spacingTop=-4;" parent="WIyWlLk6GJQsqaUBKTNV-1" vertex="1">
          <mxGeometry x="150" y="799.5" width="100" height="80" as="geometry" />
        </mxCell>
        <mxCell id="Cz3P-GHgFrTkB5Jf1ASt-37" value="" style="edgeStyle=orthogonalEdgeStyle;rounded=0;orthogonalLoop=1;jettySize=auto;html=1;exitX=1;exitY=0.5;exitDx=0;exitDy=0;entryX=0.5;entryY=1;entryDx=0;entryDy=0;" parent="WIyWlLk6GJQsqaUBKTNV-1" source="WIyWlLk6GJQsqaUBKTNV-3" target="Cz3P-GHgFrTkB5Jf1ASt-36" edge="1">
          <mxGeometry relative="1" as="geometry">
            <mxPoint x="922" y="1182" as="sourcePoint" />
            <mxPoint x="1490" y="372" as="targetPoint" />
            <Array as="points">
              <mxPoint x="1490" y="1065" />
            </Array>
          </mxGeometry>
        </mxCell>
        <mxCell id="FsfqvCxigXIEtIi23rFH-125" value="1" style="edgeLabel;html=1;align=center;verticalAlign=middle;resizable=0;points=[];" parent="Cz3P-GHgFrTkB5Jf1ASt-37" vertex="1" connectable="0">
          <mxGeometry x="-0.9591" relative="1" as="geometry">
            <mxPoint as="offset" />
          </mxGeometry>
        </mxCell>
        <mxCell id="Cz3P-GHgFrTkB5Jf1ASt-36" value="melayani" style="rhombus;whiteSpace=wrap;html=1;shadow=0;fontFamily=Helvetica;fontSize=12;align=center;strokeWidth=1;spacing=6;spacingTop=-4;" parent="WIyWlLk6GJQsqaUBKTNV-1" vertex="1">
          <mxGeometry x="1440" y="622" width="100" height="80" as="geometry" />
        </mxCell>
        <mxCell id="FsfqvCxigXIEtIi23rFH-3" value="" style="edgeStyle=orthogonalEdgeStyle;rounded=0;orthogonalLoop=1;jettySize=auto;html=1;entryX=1;entryY=0.5;entryDx=0;entryDy=0;exitX=0;exitY=0.5;exitDx=0;exitDy=0;" parent="WIyWlLk6GJQsqaUBKTNV-1" source="FsfqvCxigXIEtIi23rFH-0" target="FsfqvCxigXIEtIi23rFH-2" edge="1">
          <mxGeometry relative="1" as="geometry" />
        </mxCell>
        <mxCell id="FsfqvCxigXIEtIi23rFH-110" value="1" style="edgeLabel;html=1;align=center;verticalAlign=middle;resizable=0;points=[];" parent="FsfqvCxigXIEtIi23rFH-3" vertex="1" connectable="0">
          <mxGeometry x="0.7479" y="1" relative="1" as="geometry">
            <mxPoint x="-1" y="9" as="offset" />
          </mxGeometry>
        </mxCell>
        <mxCell id="FsfqvCxigXIEtIi23rFH-0" value="memiliki" style="rhombus;whiteSpace=wrap;html=1;shadow=0;fontFamily=Helvetica;fontSize=12;align=center;strokeWidth=1;spacing=6;spacingTop=-4;" parent="WIyWlLk6GJQsqaUBKTNV-1" vertex="1">
          <mxGeometry x="900" y="132" width="100" height="80" as="geometry" />
        </mxCell>
        <mxCell id="FsfqvCxigXIEtIi23rFH-22" style="rounded=0;orthogonalLoop=1;jettySize=auto;html=1;endArrow=none;endFill=0;exitX=0;exitY=1;exitDx=0;exitDy=0;entryX=1;entryY=0;entryDx=0;entryDy=0;" parent="WIyWlLk6GJQsqaUBKTNV-1" source="FsfqvCxigXIEtIi23rFH-2" target="FsfqvCxigXIEtIi23rFH-23" edge="1">
          <mxGeometry relative="1" as="geometry">
            <mxPoint x="795.9999999999998" y="172" as="targetPoint" />
          </mxGeometry>
        </mxCell>
        <mxCell id="FsfqvCxigXIEtIi23rFH-26" style="rounded=0;orthogonalLoop=1;jettySize=auto;html=1;exitX=0.5;exitY=0;exitDx=0;exitDy=0;entryX=0.5;entryY=1;entryDx=0;entryDy=0;endArrow=none;endFill=0;" parent="WIyWlLk6GJQsqaUBKTNV-1" source="FsfqvCxigXIEtIi23rFH-2" target="FsfqvCxigXIEtIi23rFH-24" edge="1">
          <mxGeometry relative="1" as="geometry" />
        </mxCell>
        <mxCell id="FsfqvCxigXIEtIi23rFH-27" style="rounded=0;orthogonalLoop=1;jettySize=auto;html=1;exitX=0;exitY=0.5;exitDx=0;exitDy=0;entryX=1;entryY=0.5;entryDx=0;entryDy=0;endArrow=none;endFill=0;" parent="WIyWlLk6GJQsqaUBKTNV-1" source="FsfqvCxigXIEtIi23rFH-2" target="FsfqvCxigXIEtIi23rFH-25" edge="1">
          <mxGeometry relative="1" as="geometry" />
        </mxCell>
        <mxCell id="FsfqvCxigXIEtIi23rFH-30" style="rounded=0;orthogonalLoop=1;jettySize=auto;html=1;exitX=0.25;exitY=0;exitDx=0;exitDy=0;entryX=1;entryY=1;entryDx=0;entryDy=0;endArrow=none;endFill=0;" parent="WIyWlLk6GJQsqaUBKTNV-1" source="FsfqvCxigXIEtIi23rFH-2" target="FsfqvCxigXIEtIi23rFH-28" edge="1">
          <mxGeometry relative="1" as="geometry" />
        </mxCell>
        <mxCell id="FsfqvCxigXIEtIi23rFH-31" style="rounded=0;orthogonalLoop=1;jettySize=auto;html=1;exitX=0.75;exitY=0;exitDx=0;exitDy=0;entryX=0.5;entryY=1;entryDx=0;entryDy=0;endArrow=none;endFill=0;" parent="WIyWlLk6GJQsqaUBKTNV-1" source="FsfqvCxigXIEtIi23rFH-2" target="FsfqvCxigXIEtIi23rFH-29" edge="1">
          <mxGeometry relative="1" as="geometry" />
        </mxCell>
        <mxCell id="FsfqvCxigXIEtIi23rFH-2" value="detail_pesanan" style="whiteSpace=wrap;html=1;shadow=0;strokeWidth=1;spacing=6;spacingTop=-4;" parent="WIyWlLk6GJQsqaUBKTNV-1" vertex="1">
          <mxGeometry x="626" y="152" width="120" height="40" as="geometry" />
        </mxCell>
        <mxCell id="FsfqvCxigXIEtIi23rFH-56" style="rounded=0;orthogonalLoop=1;jettySize=auto;html=1;exitX=0.25;exitY=0;exitDx=0;exitDy=0;entryX=0.5;entryY=1;entryDx=0;entryDy=0;endArrow=none;endFill=0;" parent="WIyWlLk6GJQsqaUBKTNV-1" source="FsfqvCxigXIEtIi23rFH-4" target="FsfqvCxigXIEtIi23rFH-53" edge="1">
          <mxGeometry relative="1" as="geometry" />
        </mxCell>
        <mxCell id="FsfqvCxigXIEtIi23rFH-57" style="rounded=0;orthogonalLoop=1;jettySize=auto;html=1;exitX=0.75;exitY=0;exitDx=0;exitDy=0;entryX=0.5;entryY=1;entryDx=0;entryDy=0;endArrow=none;endFill=0;" parent="WIyWlLk6GJQsqaUBKTNV-1" source="FsfqvCxigXIEtIi23rFH-4" target="FsfqvCxigXIEtIi23rFH-52" edge="1">
          <mxGeometry relative="1" as="geometry" />
        </mxCell>
        <mxCell id="FsfqvCxigXIEtIi23rFH-4" value="kategori" style="whiteSpace=wrap;html=1;shadow=0;strokeWidth=1;spacing=6;spacingTop=-4;" parent="WIyWlLk6GJQsqaUBKTNV-1" vertex="1">
          <mxGeometry x="314" y="362" width="120" height="40" as="geometry" />
        </mxCell>
        <mxCell id="FsfqvCxigXIEtIi23rFH-7" style="edgeStyle=orthogonalEdgeStyle;rounded=0;orthogonalLoop=1;jettySize=auto;html=1;entryX=1;entryY=0.5;entryDx=0;entryDy=0;exitX=0;exitY=0.5;exitDx=0;exitDy=0;" parent="WIyWlLk6GJQsqaUBKTNV-1" source="FsfqvCxigXIEtIi23rFH-6" target="FsfqvCxigXIEtIi23rFH-4" edge="1">
          <mxGeometry relative="1" as="geometry" />
        </mxCell>
        <mxCell id="FsfqvCxigXIEtIi23rFH-118" value="1" style="edgeLabel;html=1;align=center;verticalAlign=middle;resizable=0;points=[];" parent="FsfqvCxigXIEtIi23rFH-7" vertex="1" connectable="0">
          <mxGeometry x="0.6422" relative="1" as="geometry">
            <mxPoint y="10" as="offset" />
          </mxGeometry>
        </mxCell>
        <mxCell id="FsfqvCxigXIEtIi23rFH-6" value="dibagi" style="rhombus;whiteSpace=wrap;html=1;shadow=0;fontFamily=Helvetica;fontSize=12;align=center;strokeWidth=1;spacing=6;spacingTop=-4;" parent="WIyWlLk6GJQsqaUBKTNV-1" vertex="1">
          <mxGeometry x="536" y="342" width="100" height="80" as="geometry" />
        </mxCell>
        <mxCell id="FsfqvCxigXIEtIi23rFH-10" style="edgeStyle=orthogonalEdgeStyle;rounded=0;orthogonalLoop=1;jettySize=auto;html=1;exitX=1;exitY=0.5;exitDx=0;exitDy=0;entryX=0;entryY=0.5;entryDx=0;entryDy=0;" parent="WIyWlLk6GJQsqaUBKTNV-1" source="FsfqvCxigXIEtIi23rFH-9" target="FsfqvCxigXIEtIi23rFH-11" edge="1">
          <mxGeometry relative="1" as="geometry">
            <mxPoint x="1200" y="771.666666666667" as="targetPoint" />
          </mxGeometry>
        </mxCell>
        <mxCell id="FsfqvCxigXIEtIi23rFH-114" value="1" style="edgeLabel;html=1;align=center;verticalAlign=middle;resizable=0;points=[];" parent="FsfqvCxigXIEtIi23rFH-10" vertex="1" connectable="0">
          <mxGeometry x="0.719" y="1" relative="1" as="geometry">
            <mxPoint y="9" as="offset" />
          </mxGeometry>
        </mxCell>
        <mxCell id="FsfqvCxigXIEtIi23rFH-9" value="membutuhkan" style="rhombus;whiteSpace=wrap;html=1;shadow=0;fontFamily=Helvetica;fontSize=12;align=center;strokeWidth=1;spacing=6;spacingTop=-4;" parent="WIyWlLk6GJQsqaUBKTNV-1" vertex="1">
          <mxGeometry x="900" y="842" width="100" height="80" as="geometry" />
        </mxCell>
        <mxCell id="FsfqvCxigXIEtIi23rFH-77" style="rounded=0;orthogonalLoop=1;jettySize=auto;html=1;exitX=0.5;exitY=1;exitDx=0;exitDy=0;entryX=0.5;entryY=0;entryDx=0;entryDy=0;endArrow=none;endFill=0;" parent="WIyWlLk6GJQsqaUBKTNV-1" source="FsfqvCxigXIEtIi23rFH-11" target="FsfqvCxigXIEtIi23rFH-76" edge="1">
          <mxGeometry relative="1" as="geometry" />
        </mxCell>
        <mxCell id="FsfqvCxigXIEtIi23rFH-78" style="rounded=0;orthogonalLoop=1;jettySize=auto;html=1;exitX=0.75;exitY=1;exitDx=0;exitDy=0;entryX=0;entryY=0;entryDx=0;entryDy=0;endArrow=none;endFill=0;" parent="WIyWlLk6GJQsqaUBKTNV-1" source="FsfqvCxigXIEtIi23rFH-11" target="FsfqvCxigXIEtIi23rFH-73" edge="1">
          <mxGeometry relative="1" as="geometry" />
        </mxCell>
        <mxCell id="FsfqvCxigXIEtIi23rFH-79" style="rounded=0;orthogonalLoop=1;jettySize=auto;html=1;exitX=1;exitY=0.5;exitDx=0;exitDy=0;entryX=0;entryY=0.5;entryDx=0;entryDy=0;endArrow=none;endFill=0;" parent="WIyWlLk6GJQsqaUBKTNV-1" source="FsfqvCxigXIEtIi23rFH-11" target="FsfqvCxigXIEtIi23rFH-71" edge="1">
          <mxGeometry relative="1" as="geometry" />
        </mxCell>
        <mxCell id="FsfqvCxigXIEtIi23rFH-80" style="rounded=0;orthogonalLoop=1;jettySize=auto;html=1;exitX=0.75;exitY=0;exitDx=0;exitDy=0;entryX=0;entryY=1;entryDx=0;entryDy=0;endArrow=none;endFill=0;" parent="WIyWlLk6GJQsqaUBKTNV-1" source="FsfqvCxigXIEtIi23rFH-11" target="FsfqvCxigXIEtIi23rFH-70" edge="1">
          <mxGeometry relative="1" as="geometry" />
        </mxCell>
        <mxCell id="FsfqvCxigXIEtIi23rFH-81" value="" style="rounded=0;orthogonalLoop=1;jettySize=auto;html=1;endArrow=none;endFill=0;" parent="WIyWlLk6GJQsqaUBKTNV-1" source="FsfqvCxigXIEtIi23rFH-11" target="FsfqvCxigXIEtIi23rFH-72" edge="1">
          <mxGeometry relative="1" as="geometry" />
        </mxCell>
        <mxCell id="FsfqvCxigXIEtIi23rFH-82" style="rounded=0;orthogonalLoop=1;jettySize=auto;html=1;exitX=0.25;exitY=0;exitDx=0;exitDy=0;entryX=1;entryY=0.5;entryDx=0;entryDy=0;endArrow=none;endFill=0;" parent="WIyWlLk6GJQsqaUBKTNV-1" source="FsfqvCxigXIEtIi23rFH-11" target="FsfqvCxigXIEtIi23rFH-75" edge="1">
          <mxGeometry relative="1" as="geometry" />
        </mxCell>
        <mxCell id="FsfqvCxigXIEtIi23rFH-83" style="rounded=0;orthogonalLoop=1;jettySize=auto;html=1;exitX=0.25;exitY=1;exitDx=0;exitDy=0;entryX=1;entryY=0;entryDx=0;entryDy=0;endArrow=none;endFill=0;" parent="WIyWlLk6GJQsqaUBKTNV-1" source="FsfqvCxigXIEtIi23rFH-11" target="FsfqvCxigXIEtIi23rFH-74" edge="1">
          <mxGeometry relative="1" as="geometry" />
        </mxCell>
        <mxCell id="FsfqvCxigXIEtIi23rFH-11" value="pengiriman" style="rounded=1;whiteSpace=wrap;html=1;fontSize=12;glass=0;strokeWidth=1;shadow=0;arcSize=0;" parent="WIyWlLk6GJQsqaUBKTNV-1" vertex="1">
          <mxGeometry x="1140" y="862" width="120" height="40" as="geometry" />
        </mxCell>
        <mxCell id="FsfqvCxigXIEtIi23rFH-12" value="id_pelanggan" style="ellipse;whiteSpace=wrap;html=1;rounded=1;glass=0;strokeWidth=1;shadow=0;arcSize=0;fontStyle=5" parent="WIyWlLk6GJQsqaUBKTNV-1" vertex="1">
          <mxGeometry x="1450" y="252" width="110" height="40" as="geometry" />
        </mxCell>
        <mxCell id="FsfqvCxigXIEtIi23rFH-14" value="&lt;span style=&quot;font-weight: 400;&quot;&gt;nama_pelanggan&lt;/span&gt;" style="ellipse;whiteSpace=wrap;html=1;rounded=1;glass=0;strokeWidth=1;shadow=0;arcSize=0;fontStyle=1" parent="WIyWlLk6GJQsqaUBKTNV-1" vertex="1">
          <mxGeometry x="1320" y="282" width="120" height="40" as="geometry" />
        </mxCell>
        <mxCell id="FsfqvCxigXIEtIi23rFH-15" value="&lt;span style=&quot;font-weight: 400;&quot;&gt;email&lt;/span&gt;" style="ellipse;whiteSpace=wrap;html=1;rounded=1;glass=0;strokeWidth=1;shadow=0;arcSize=0;fontStyle=1" parent="WIyWlLk6GJQsqaUBKTNV-1" vertex="1">
          <mxGeometry x="1560" y="292" width="80" height="40" as="geometry" />
        </mxCell>
        <mxCell id="FsfqvCxigXIEtIi23rFH-16" value="&lt;span style=&quot;font-weight: 400;&quot;&gt;alamat&lt;/span&gt;" style="ellipse;whiteSpace=wrap;html=1;rounded=1;glass=0;strokeWidth=1;shadow=0;arcSize=0;fontStyle=1" parent="WIyWlLk6GJQsqaUBKTNV-1" vertex="1">
          <mxGeometry x="1350" y="382" width="80" height="40" as="geometry" />
        </mxCell>
        <mxCell id="FsfqvCxigXIEtIi23rFH-17" value="&lt;span style=&quot;font-weight: 400;&quot;&gt;no_telp&lt;/span&gt;" style="ellipse;whiteSpace=wrap;html=1;rounded=1;glass=0;strokeWidth=1;shadow=0;arcSize=0;fontStyle=1" parent="WIyWlLk6GJQsqaUBKTNV-1" vertex="1">
          <mxGeometry x="1530" y="382" width="80" height="40" as="geometry" />
        </mxCell>
        <mxCell id="FsfqvCxigXIEtIi23rFH-23" value="kuantitas" style="ellipse;whiteSpace=wrap;html=1;fontStyle=0" parent="WIyWlLk6GJQsqaUBKTNV-1" vertex="1">
          <mxGeometry x="520" y="202" width="83" height="30" as="geometry" />
        </mxCell>
        <mxCell id="FsfqvCxigXIEtIi23rFH-24" value="id_detail_pesanan" style="ellipse;whiteSpace=wrap;html=1;fontStyle=5" parent="WIyWlLk6GJQsqaUBKTNV-1" vertex="1">
          <mxGeometry x="583" y="42" width="140" height="40" as="geometry" />
        </mxCell>
        <mxCell id="FsfqvCxigXIEtIi23rFH-25" value="harga" style="ellipse;whiteSpace=wrap;html=1;" parent="WIyWlLk6GJQsqaUBKTNV-1" vertex="1">
          <mxGeometry x="534.5" y="152" width="63" height="30" as="geometry" />
        </mxCell>
        <mxCell id="FsfqvCxigXIEtIi23rFH-28" value="id_pesanan" style="ellipse;whiteSpace=wrap;html=1;fontStyle=6" parent="WIyWlLk6GJQsqaUBKTNV-1" vertex="1">
          <mxGeometry x="537.75" y="92" width="90" height="40" as="geometry" />
        </mxCell>
        <mxCell id="FsfqvCxigXIEtIi23rFH-29" value="id_produk" style="ellipse;whiteSpace=wrap;html=1;fontStyle=6" parent="WIyWlLk6GJQsqaUBKTNV-1" vertex="1">
          <mxGeometry x="690" y="92" width="100" height="40" as="geometry" />
        </mxCell>
        <mxCell id="FsfqvCxigXIEtIi23rFH-32" value="id_pesanan" style="ellipse;whiteSpace=wrap;html=1;fontStyle=5" parent="WIyWlLk6GJQsqaUBKTNV-1" vertex="1">
          <mxGeometry x="830" y="272" width="97" height="40" as="geometry" />
        </mxCell>
        <mxCell id="FsfqvCxigXIEtIi23rFH-33" value="tgl_pesanan" style="ellipse;whiteSpace=wrap;html=1;" parent="WIyWlLk6GJQsqaUBKTNV-1" vertex="1">
          <mxGeometry x="1010" y="292" width="97" height="40" as="geometry" />
        </mxCell>
        <mxCell id="FsfqvCxigXIEtIi23rFH-35" value="id_pelanggan" style="ellipse;whiteSpace=wrap;html=1;fontStyle=6" parent="WIyWlLk6GJQsqaUBKTNV-1" vertex="1">
          <mxGeometry x="773" y="332" width="97" height="40" as="geometry" />
        </mxCell>
        <mxCell id="FsfqvCxigXIEtIi23rFH-36" value="status" style="ellipse;whiteSpace=wrap;html=1;" parent="WIyWlLk6GJQsqaUBKTNV-1" vertex="1">
          <mxGeometry x="960" y="252" width="70" height="30" as="geometry" />
        </mxCell>
        <mxCell id="FsfqvCxigXIEtIi23rFH-38" style="rounded=0;orthogonalLoop=1;jettySize=auto;html=1;exitX=0.5;exitY=1;exitDx=0;exitDy=0;entryX=0.621;entryY=-0.017;entryDx=0;entryDy=0;entryPerimeter=0;endArrow=none;endFill=0;" parent="WIyWlLk6GJQsqaUBKTNV-1" source="FsfqvCxigXIEtIi23rFH-36" target="WIyWlLk6GJQsqaUBKTNV-11" edge="1">
          <mxGeometry relative="1" as="geometry" />
        </mxCell>
        <mxCell id="FsfqvCxigXIEtIi23rFH-43" value="id_produk" style="ellipse;whiteSpace=wrap;html=1;fontStyle=5" parent="WIyWlLk6GJQsqaUBKTNV-1" vertex="1">
          <mxGeometry x="700" y="585" width="100" height="40" as="geometry" />
        </mxCell>
        <mxCell id="FsfqvCxigXIEtIi23rFH-45" value="nma_produk" style="ellipse;whiteSpace=wrap;html=1;fontStyle=0" parent="WIyWlLk6GJQsqaUBKTNV-1" vertex="1">
          <mxGeometry x="780" y="685" width="100" height="40" as="geometry" />
        </mxCell>
        <mxCell id="FsfqvCxigXIEtIi23rFH-46" value="deskripsi" style="ellipse;whiteSpace=wrap;html=1;fontStyle=0" parent="WIyWlLk6GJQsqaUBKTNV-1" vertex="1">
          <mxGeometry x="698" y="720" width="90" height="40" as="geometry" />
        </mxCell>
        <mxCell id="FsfqvCxigXIEtIi23rFH-49" value="harga" style="ellipse;whiteSpace=wrap;html=1;fontStyle=0" parent="WIyWlLk6GJQsqaUBKTNV-1" vertex="1">
          <mxGeometry x="613" y="735" width="60" height="30" as="geometry" />
        </mxCell>
        <mxCell id="FsfqvCxigXIEtIi23rFH-50" value="stok" style="ellipse;whiteSpace=wrap;html=1;fontStyle=0" parent="WIyWlLk6GJQsqaUBKTNV-1" vertex="1">
          <mxGeometry x="793" y="635" width="60" height="30" as="geometry" />
        </mxCell>
        <mxCell id="FsfqvCxigXIEtIi23rFH-52" value="nma_kategori" style="ellipse;whiteSpace=wrap;html=1;fontStyle=0" parent="WIyWlLk6GJQsqaUBKTNV-1" vertex="1">
          <mxGeometry x="360" y="302" width="110" height="40" as="geometry" />
        </mxCell>
        <mxCell id="FsfqvCxigXIEtIi23rFH-53" value="id_kategori" style="ellipse;whiteSpace=wrap;html=1;fontStyle=5" parent="WIyWlLk6GJQsqaUBKTNV-1" vertex="1">
          <mxGeometry x="260" y="262" width="100" height="40" as="geometry" />
        </mxCell>
        <mxCell id="FsfqvCxigXIEtIi23rFH-54" value="id_kategori" style="ellipse;whiteSpace=wrap;html=1;fontStyle=6" parent="WIyWlLk6GJQsqaUBKTNV-1" vertex="1">
          <mxGeometry x="540" y="695" width="84.5" height="40" as="geometry" />
        </mxCell>
        <mxCell id="FsfqvCxigXIEtIi23rFH-58" value="id_pembayaran" style="ellipse;whiteSpace=wrap;html=1;fontStyle=5" parent="WIyWlLk6GJQsqaUBKTNV-1" vertex="1">
          <mxGeometry x="1080" y="552" width="130" height="40" as="geometry" />
        </mxCell>
        <mxCell id="FsfqvCxigXIEtIi23rFH-59" value="metode" style="ellipse;whiteSpace=wrap;html=1;fontStyle=0" parent="WIyWlLk6GJQsqaUBKTNV-1" vertex="1">
          <mxGeometry x="1030" y="712" width="80" height="30" as="geometry" />
        </mxCell>
        <mxCell id="FsfqvCxigXIEtIi23rFH-60" value="tgl_pembayaran" style="ellipse;whiteSpace=wrap;html=1;fontStyle=0" parent="WIyWlLk6GJQsqaUBKTNV-1" vertex="1">
          <mxGeometry x="1100" y="672" width="123" height="40" as="geometry" />
        </mxCell>
        <mxCell id="FsfqvCxigXIEtIi23rFH-61" value="status" style="ellipse;whiteSpace=wrap;html=1;fontStyle=0" parent="WIyWlLk6GJQsqaUBKTNV-1" vertex="1">
          <mxGeometry x="970" y="682" width="67" height="30" as="geometry" />
        </mxCell>
        <mxCell id="FsfqvCxigXIEtIi23rFH-62" value="jumlah" style="ellipse;whiteSpace=wrap;html=1;fontStyle=0" parent="WIyWlLk6GJQsqaUBKTNV-1" vertex="1">
          <mxGeometry x="980" y="572" width="67" height="30" as="geometry" />
        </mxCell>
        <mxCell id="FsfqvCxigXIEtIi23rFH-63" value="id_pesanan" style="ellipse;whiteSpace=wrap;html=1;fontStyle=6" parent="WIyWlLk6GJQsqaUBKTNV-1" vertex="1">
          <mxGeometry x="1140" y="612" width="100" height="40" as="geometry" />
        </mxCell>
        <mxCell id="FsfqvCxigXIEtIi23rFH-70" value="id_pengiriman" style="ellipse;whiteSpace=wrap;html=1;fontStyle=5" parent="WIyWlLk6GJQsqaUBKTNV-1" vertex="1">
          <mxGeometry x="1223" y="802" width="107" height="40" as="geometry" />
        </mxCell>
        <mxCell id="FsfqvCxigXIEtIi23rFH-71" value="id_pesanan" style="ellipse;whiteSpace=wrap;html=1;fontStyle=6" parent="WIyWlLk6GJQsqaUBKTNV-1" vertex="1">
          <mxGeometry x="1280" y="862" width="100" height="40" as="geometry" />
        </mxCell>
        <mxCell id="FsfqvCxigXIEtIi23rFH-72" value="status" style="ellipse;whiteSpace=wrap;html=1;" parent="WIyWlLk6GJQsqaUBKTNV-1" vertex="1">
          <mxGeometry x="1140" y="797" width="70" height="30" as="geometry" />
        </mxCell>
        <mxCell id="FsfqvCxigXIEtIi23rFH-73" value="nmr_pelacakan" style="ellipse;whiteSpace=wrap;html=1;" parent="WIyWlLk6GJQsqaUBKTNV-1" vertex="1">
          <mxGeometry x="1250" y="912" width="103" height="40" as="geometry" />
        </mxCell>
        <mxCell id="FsfqvCxigXIEtIi23rFH-74" value="tgl_dikirim" style="ellipse;whiteSpace=wrap;html=1;" parent="WIyWlLk6GJQsqaUBKTNV-1" vertex="1">
          <mxGeometry x="1070" y="912" width="88.25" height="30" as="geometry" />
        </mxCell>
        <mxCell id="FsfqvCxigXIEtIi23rFH-75" value="metode" style="ellipse;whiteSpace=wrap;html=1;" parent="WIyWlLk6GJQsqaUBKTNV-1" vertex="1">
          <mxGeometry x="1080" y="827" width="60" height="30" as="geometry" />
        </mxCell>
        <mxCell id="FsfqvCxigXIEtIi23rFH-76" value="alamat_pengiriman" style="ellipse;whiteSpace=wrap;html=1;" parent="WIyWlLk6GJQsqaUBKTNV-1" vertex="1">
          <mxGeometry x="1140" y="952" width="123.5" height="40" as="geometry" />
        </mxCell>
        <mxCell id="FsfqvCxigXIEtIi23rFH-85" value="alamat_pengiriman" style="ellipse;whiteSpace=wrap;html=1;" parent="WIyWlLk6GJQsqaUBKTNV-1" vertex="1">
          <mxGeometry x="773" y="382" width="133.5" height="40" as="geometry" />
        </mxCell>
        <mxCell id="FsfqvCxigXIEtIi23rFH-87" value="alamat_penerima" style="ellipse;whiteSpace=wrap;html=1;" parent="WIyWlLk6GJQsqaUBKTNV-1" vertex="1">
          <mxGeometry x="810" y="432" width="123.5" height="40" as="geometry" />
        </mxCell>
        <mxCell id="FsfqvCxigXIEtIi23rFH-89" value="id_admin" style="ellipse;whiteSpace=wrap;html=1;fontStyle=5" parent="WIyWlLk6GJQsqaUBKTNV-1" vertex="1">
          <mxGeometry x="564.75" y="975" width="88.25" height="30" as="geometry" />
        </mxCell>
        <mxCell id="FsfqvCxigXIEtIi23rFH-90" value="password" style="ellipse;whiteSpace=wrap;html=1;" parent="WIyWlLk6GJQsqaUBKTNV-1" vertex="1">
          <mxGeometry x="719.5" y="965" width="90.5" height="30" as="geometry" />
        </mxCell>
        <mxCell id="FsfqvCxigXIEtIi23rFH-95" value="nma_penjual" style="ellipse;whiteSpace=wrap;html=1;fontStyle=0" parent="WIyWlLk6GJQsqaUBKTNV-1" vertex="1">
          <mxGeometry x="225" y="704.5" width="110" height="40" as="geometry" />
        </mxCell>
        <mxCell id="FsfqvCxigXIEtIi23rFH-96" value="id_penjual" style="ellipse;whiteSpace=wrap;html=1;fontStyle=5" parent="WIyWlLk6GJQsqaUBKTNV-1" vertex="1">
          <mxGeometry x="250" y="594.5" width="100" height="40" as="geometry" />
        </mxCell>
        <mxCell id="FsfqvCxigXIEtIi23rFH-97" value="alamat_penjual" style="ellipse;whiteSpace=wrap;html=1;fontStyle=0" parent="WIyWlLk6GJQsqaUBKTNV-1" vertex="1">
          <mxGeometry x="130" y="574.5" width="110" height="40" as="geometry" />
        </mxCell>
        <mxCell id="FsfqvCxigXIEtIi23rFH-98" value="no_telp_penjual" style="ellipse;whiteSpace=wrap;html=1;fontStyle=0" parent="WIyWlLk6GJQsqaUBKTNV-1" vertex="1">
          <mxGeometry x="70" y="709.5" width="110" height="40" as="geometry" />
        </mxCell>
        <mxCell id="FsfqvCxigXIEtIi23rFH-99" value="email_penjual" style="ellipse;whiteSpace=wrap;html=1;fontStyle=0" parent="WIyWlLk6GJQsqaUBKTNV-1" vertex="1">
          <mxGeometry x="40" y="604.5" width="100" height="40" as="geometry" />
        </mxCell>
        <mxCell id="FsfqvCxigXIEtIi23rFH-100" value="deskripsi" style="ellipse;whiteSpace=wrap;html=1;fontStyle=0" parent="WIyWlLk6GJQsqaUBKTNV-1" vertex="1">
          <mxGeometry x="20" y="654.5" width="90" height="40" as="geometry" />
        </mxCell>
      </root>
    </mxGraphModel>
  </diagram>
</mxfile>
